<svg width="240" height="240" viewBox="0 0 240 240" xmlns="http://www.w3.org/2000/svg" xmlns:xlink="http://www.w3.org/1999/xlink"><defs><clipPath id="clip-1"><rect x="0" y="0" width="240" height="240" fill="#ffffff" stroke="none" stroke-width="1" stroke-linecap="butt" stroke-linejoin="miter" opacity="0.05"></rect></clipPath></defs><g clip-path="url(#clip-1)" id="Skull Logo" fill="none" fill-rule="nonzero" stroke="none" stroke-width="none" stroke-linecap="none" stroke-linejoin="none" stroke-miterlimit="10" stroke-dasharray="" stroke-dashoffset="0" font-family="none" font-weight="none" font-size="none" text-anchor="none" style="mix-blend-mode: normal"><rect x="0" y="0" width="240" height="240" fill="#ffffff" stroke="none" stroke-width="1" stroke-linecap="butt" stroke-linejoin="miter" opacity="0.05"></rect><g id="Skull" fill="#ffffff" stroke="#000000" stroke-width="5" stroke-linecap="butt" stroke-linejoin="miter"><path d="M229,198c0,3 -8.8104,6.6599 -29,15.7209c-21.2981,9.5585 -66.2102,6.9749 -80,-0.873c-13.7898,-7.8479 0,-12.7841 -10,-35.316c-10,-22.5319 -24.4627,-27.1894 -21.3184,-31.2586c3.1444,-4.0692 0.3184,-3.7463 4.789,-3.2733c3.8626,0.4087 14.632,17 21.5294,17c11.4139,0 12.3388,-15 12.3388,-15c0,0 2.6612,-2.9453 2.6612,1.2733c0,7.2135 -3.5694,36.5284 6.9568,41.9864c4.8257,2.5022 41.5954,-1.7406 58.861,-8.2597c12.1822,-4.5997 16.1822,-8 21.1822,-9c1.6643,-0.3329 2.1632,7.2563 5.6971,13.3266c3.3029,5.6734 6.3029,9.6734 6.3029,13.6734z" id="Jaw"></path><path d="M87,147c-0.5052,2.3711 3.0424,5.4684 5,7.5299c1.3104,1.38 6.7776,6.0319 8.056,8.2977c1.2402,2.1981 2.9711,6.498 3.3914,9.1724c1.7255,10.9808 2.1073,10 2.5526,12.6901c0.4231,2.5558 0.228,4.4575 0,6.3099c-0.1843,1.4973 0.2537,2.5739 -0.6903,4c-3.3097,5 -9.9578,6.901 -30.3097,10c-7.3386,1.1174 -23.5309,1 -35,-6.5168c-13.4797,-8.8346 -21,-25.4832 -24,-30.9025c-6.6156,-11.9507 -6,-13.8441 -6,-28.3845c0,-15.2577 2.2741,-24.5784 6,-34.9084c3.307,-9.1687 8.1149,-16.3123 14,-24.2878c6.7367,-9.1297 25,-26.734 25,-26.9156c0,-0.1816 15.116,-12.0037 22.0555,-16.7108c5.7975,-3.9325 10.3555,-7.1213 16.5292,-9.9902c7.014,-3.2593 16.0972,-6.2691 23.6131,-7.9921c6.568,-1.5057 12.6135,-2.6206 18.8905,-2.3613c6.324,0.2612 12.623,1.9587 18.9118,3.9701c6.6838,2.1377 13.7457,3.8156 20,8c7.2156,4.8276 15.8435,12.2384 20,18c2.8317,3.9252 5,11.4437 5,11.4437c0,0 1.874,15.3558 3.8397,22.5563c1.9013,6.9645 3.9901,15.6184 7.6289,20c2.6532,3.1948 7.766,3.4958 9.7072,5.9399c1.5129,1.9048 1.6951,4.2718 2.1797,6.5601c0.5059,2.3892 1.0329,5.0758 0.7266,7.5c-0.3048,2.4117 -2.543,6.8284 -2.543,7.01c0,0.1816 -5.4492,5.2675 -5.4492,5.2675l1.4531,2.7224c0,0 3.3748,4.6267 3.9961,6.7228c0.4736,1.5978 0.896,3.2691 0.1816,4.541c-0.9292,1.6544 -3.5918,2.3593 -6.7207,3.7362c-6.3452,2.7924 -21.7157,7.2386 -30,10c-5.8579,1.9526 -9.1028,3.7593 -15,5c-7.9938,1.6818 -24.1873,6.8152 -28.9272,2.6972c-4.1919,-3.6418 1.4468,-16.9988 -1.0728,-22.6972c-1.9877,-4.4955 -6.2347,-9.5848 -10,-10c-3.9963,-0.4407 -8.8566,7.8502 -13.4485,8.5392c-4.2072,0.6313 -7.7133,-3.9418 -10.5515,-3.1058c-1.817,0.5352 -3.3835,3.2514 -5,3.5666c-2.1035,0.4101 -8.3664,-4.2666 -9.3331,-4c-2.0837,0.5746 -4.2249,4.9251 -4.6669,7z" id="Skull"></path></g><path d="M75,205c20.3519,-3.099 27,-5 30.3097,-10c0.944,-1.4261 0.506,-2.5027 0.6903,-4c0.228,-1.8523 0.4231,-3.7541 0,-6.3099c-0.4453,-2.6901 -0.8271,-1.7093 -2.5526,-12.6901c-0.4202,-2.6744 -2.1512,-6.9743 -3.3914,-9.1724c-1.2784,-2.2658 -6.7457,-6.9177 -8.056,-8.2977c-1.9576,-2.0615 -5.5052,-5.1589 -5,-7.5299c-0.0633,19.2075 8.892,23.1946 6.6893,33c-2.1208,9.4408 -0.5747,8.2597 -18.6893,25z" id="Path" fill="#000000" stroke="#000000" stroke-width="0" stroke-linecap="butt" stroke-linejoin="round" style="mix-blend-mode: darken"></path><g id="Teeth" fill="#ffffff" stroke="#000000" stroke-width="4" stroke-linecap="butt" stroke-linejoin="round"><path d="M139.4101,189l3.0635,-8l4.5264,-0.6327l3,4.6327l2.3,-5l5.7,-2l5,5l3.4614,-7l3.0057,1l2.5329,4.3023l2.3225,-2.3023l3.6775,2.3023l4,-1.9177v-7.3846c0,0 8.2742,5.1714 8,5c-0.2742,-0.1714 2,-1.5121 2,-1.5121l-1.4797,-5.7802l7.0518,-0.7077l1.7919,4.6961l1.6359,-2.6961l-0.5955,-2.6795l3.5955,0.3468l1,-5.6673l7,0.6766v4.3234l3,-5l2,7v1l-9.2014,6.9264l-14.4272,4.865l-14.7627,3.8584l-18.6087,3.3502z"></path><path d="M142.5407,167.5254c-1.0485,0.865 0.4593,11.4746 0.4593,11.4746l6,-1l3.6072,-7l5.3928,3.5284l6,-0.0773l5,-7.4511l1,1.503l0.4515,4.497c0,0 3.088,1.0366 4.0942,0.5241c0.9928,-0.5057 1.9312,-3.5241 1.9312,-3.5241l2.5231,1v-8l8,5.5802l2,-7.1068l2,3.5266h3l2,-4l3,2l8,-1v-5l9,4v-9l2.6028,-3.4999l-14.8304,4.2626l-21.9763,7.2373l-9.7092,4.5118c0,0 -7.2105,-0.2827 -10.9251,0.4882c-3.6958,0.7671 -8.2882,3.8689 -11.3057,4.1292c-2.0433,0.1762 -3.4163,-1.2224 -4.8561,-1.436c-1.0674,-0.1583 -1.92,-0.6127 -2.4593,-0.1678z"></path></g><g id="Eyes/Nose" fill="#000000" stroke="#000000" stroke-width="0" stroke-linecap="butt"><path d="M162.4343,104c-0.8521,0.1374 -2.0707,0.0895 -3.0195,1c-2.0831,1.999 -4.5974,10.5183 -5.4149,14.3435c-0.5162,2.4156 -0.9713,4.4438 -0.3671,6.1032c0.5406,1.4847 2.0646,3.4091 3.3671,3.5534c1.445,0.16 3.8834,-1.6887 5,-3.3606c1.3175,-1.9728 0.6516,-8.021 1.6549,-8.2232c0.9,-0.1814 2.3802,4.2872 3.7904,5.5838c1.0962,1.008 2.396,1.8891 3.5547,2c1.0203,0.0976 2.2007,-0.3068 3,-1c0.9505,-0.8244 1.9352,-2.4419 2,-4c0.0871,-2.094 -1.693,-5.1281 -3,-7.5c-1.3427,-2.4367 -3.211,-5.5111 -5,-6.9046c-1.2715,-0.9905 -2.0085,-1.3481 -3,-1.5954c-0.8616,-0.2148 -1.9678,-0.0964 -2.5657,0z" id="Nose" stroke-linejoin="round"></path><path d="M105,70c-3.1055,1.068 -6.2344,2.4312 -8.6207,4.4254c-2.325,1.9429 -4.3204,4.8543 -5.5874,7.3066c-1.0671,2.0655 -1.6093,4.4952 -1.9341,6.2321c-0.2247,1.2017 -0.2149,2.9012 -0.2149,3.116c0,0.2149 -4.1175,8.186 -4.5129,11.4971c-0.2845,2.3832 0.87,6.2321 0.87,6.3395c0,0.1074 3.5938,4.7786 4,5.0833c4,3 4.0383,2.9681 6,4c1.6953,0.8918 2.7977,1.0392 5,2c2.5786,1.1249 5.7535,2.3151 8.736,2.8852c2.9743,0.5685 6.0386,0.7905 9.1332,0.5372c3.2747,-0.268 6.5806,-1.2385 9.9928,-2.2564c3.735,-1.1142 8.2816,-2.1199 11.4971,-4.298c3.0691,-2.0788 6.1752,-5.2488 7.5215,-8.2736c1.1833,-2.6586 1.2024,-5.8622 0.8596,-8.5944c-0.33,-2.6306 -1.9018,-5.1283 -2.7403,-7.5231c-0.7598,-2.1701 -1.4696,-4.2587 -2.095,-6.2321c-0.5599,-1.7667 -0.5521,-3.2472 -1.5043,-5.0501c-1.3805,-2.6139 -4.2867,-6.4321 -6.9842,-8.596c-2.4812,-1.9903 -5.3445,-3.4073 -8.3811,-4.1905c-3.2039,-0.8264 -6.9475,-0.6857 -10.4226,-0.4298c-3.5366,0.2604 -7.3338,0.8939 -10.6128,2.0216z" id="Path" stroke-linejoin="miter"></path><path d="M198.4578,57.4416c-1.2858,-0.3704 -3.5869,-0.8344 -5.5447,-1.0819c-2.1651,-0.2736 -4.7228,-0.8056 -6.897,-0.4057c-2.1245,0.3907 -4.1909,1.501 -6.0161,2.7047c-1.8522,1.2215 -3.4168,2.5923 -5,4.598c-2.1113,2.6748 -5.1322,6.9841 -5.8885,10.5484c-0.6804,3.2066 0.8803,6.2331 0.8885,9.737c0.0095,4.1079 -1.6078,9.1904 -1.1589,13.3884c0.4145,3.8773 1.3425,8.2 3.3809,10.9541c1.8456,2.4936 4.9825,4.5316 7.778,5.2742c2.676,0.7108 5.937,-0.3587 8.5856,-0.6589c2.2988,-0.2606 4.0171,0.1582 6.4144,-0.9639c4.2345,-1.982 15.1291,-13.4416 15.1291,-13.4416l-5.7418,-16.0707l-2.9409,-14.2851l-1.3685,-9.6719c0,0 -0.9072,-0.4198 -1.6201,-0.6251z" stroke-linejoin="round"></path></g><path d="M202.6701,187.4528c0,0 6.7501,5.1217 9.175,8.2799c2.3427,3.0512 5.2544,10.2687 5.2544,10.2687" fill-opacity="0" fill="#ffffff" stroke="#000000" stroke-width="5" stroke-linecap="round" stroke-linejoin="round"></path></g></svg>